<mxfile host="Electron" modified="2023-10-21T09:35:06.930Z" agent="Mozilla/5.0 (X11; Linux x86_64) AppleWebKit/537.36 (KHTML, like Gecko) draw.io/22.0.3 Chrome/114.0.5735.289 Electron/25.8.4 Safari/537.36" etag="i-lvU6azTkwxAxa_bhiY" version="22.0.3" type="device">
  <diagram name="Page-1" id="ziHmGceFmZ8IrDc1lhzU">
    <mxGraphModel dx="957" dy="581" grid="1" gridSize="10" guides="1" tooltips="1" connect="1" arrows="1" fold="1" page="1" pageScale="1" pageWidth="827" pageHeight="1169" math="0" shadow="0">
      <root>
        <mxCell id="0" />
        <mxCell id="1" parent="0" />
        <mxCell id="z6N8PKe_HhuRY13bzHWO-20" value="" style="rounded=1;whiteSpace=wrap;html=1;fillColor=#dae8fc;arcSize=29;dashed=1;strokeColor=#6c8ebf;" parent="1" vertex="1">
          <mxGeometry x="50" y="110" width="503" height="225" as="geometry" />
        </mxCell>
        <mxCell id="z6N8PKe_HhuRY13bzHWO-39" style="edgeStyle=orthogonalEdgeStyle;rounded=0;orthogonalLoop=1;jettySize=auto;html=1;exitX=0.5;exitY=1;exitDx=0;exitDy=0;fontFamily=Helvetica;fontSize=12;fontColor=default;endArrow=classic;endFill=1;" parent="1" source="z6N8PKe_HhuRY13bzHWO-1" target="z6N8PKe_HhuRY13bzHWO-33" edge="1">
          <mxGeometry relative="1" as="geometry" />
        </mxCell>
        <mxCell id="z6N8PKe_HhuRY13bzHWO-1" value="Objec Storage&lt;br&gt;[Minio]" style="rounded=1;whiteSpace=wrap;html=1;fontStyle=1" parent="1" vertex="1">
          <mxGeometry x="217" y="280" width="160" height="40" as="geometry" />
        </mxCell>
        <mxCell id="z6N8PKe_HhuRY13bzHWO-6" style="edgeStyle=orthogonalEdgeStyle;rounded=0;orthogonalLoop=1;jettySize=auto;html=1;entryX=0.25;entryY=0;entryDx=0;entryDy=0;" parent="1" source="z6N8PKe_HhuRY13bzHWO-2" target="z6N8PKe_HhuRY13bzHWO-1" edge="1">
          <mxGeometry relative="1" as="geometry" />
        </mxCell>
        <mxCell id="z6N8PKe_HhuRY13bzHWO-2" value="Package Repository&lt;br&gt;[Nexus]" style="rounded=1;whiteSpace=wrap;html=1;fontStyle=1" parent="1" vertex="1">
          <mxGeometry x="117" y="205" width="160" height="40" as="geometry" />
        </mxCell>
        <mxCell id="z6N8PKe_HhuRY13bzHWO-5" style="edgeStyle=orthogonalEdgeStyle;rounded=0;orthogonalLoop=1;jettySize=auto;html=1;entryX=0.75;entryY=0;entryDx=0;entryDy=0;" parent="1" source="z6N8PKe_HhuRY13bzHWO-3" target="z6N8PKe_HhuRY13bzHWO-1" edge="1">
          <mxGeometry relative="1" as="geometry" />
        </mxCell>
        <mxCell id="z6N8PKe_HhuRY13bzHWO-3" value="Git Repository&lt;br&gt;[Gitlab]" style="rounded=1;whiteSpace=wrap;html=1;fontStyle=1;align=center;" parent="1" vertex="1">
          <mxGeometry x="314" y="205" width="160" height="40" as="geometry" />
        </mxCell>
        <mxCell id="z6N8PKe_HhuRY13bzHWO-49" style="edgeStyle=orthogonalEdgeStyle;rounded=0;orthogonalLoop=1;jettySize=auto;html=1;fontFamily=Helvetica;fontSize=12;fontColor=default;" parent="1" source="z6N8PKe_HhuRY13bzHWO-4" target="z6N8PKe_HhuRY13bzHWO-1" edge="1">
          <mxGeometry relative="1" as="geometry" />
        </mxCell>
        <mxCell id="z6N8PKe_HhuRY13bzHWO-50" style="edgeStyle=orthogonalEdgeStyle;rounded=0;orthogonalLoop=1;jettySize=auto;html=1;exitX=0.75;exitY=1;exitDx=0;exitDy=0;entryX=0.5;entryY=0;entryDx=0;entryDy=0;fontFamily=Helvetica;fontSize=12;fontColor=default;" parent="1" source="z6N8PKe_HhuRY13bzHWO-4" target="z6N8PKe_HhuRY13bzHWO-3" edge="1">
          <mxGeometry relative="1" as="geometry" />
        </mxCell>
        <mxCell id="z6N8PKe_HhuRY13bzHWO-51" style="edgeStyle=orthogonalEdgeStyle;rounded=0;orthogonalLoop=1;jettySize=auto;html=1;exitX=0.25;exitY=1;exitDx=0;exitDy=0;entryX=0.5;entryY=0;entryDx=0;entryDy=0;fontFamily=Helvetica;fontSize=12;fontColor=default;" parent="1" source="z6N8PKe_HhuRY13bzHWO-4" target="z6N8PKe_HhuRY13bzHWO-2" edge="1">
          <mxGeometry relative="1" as="geometry" />
        </mxCell>
        <mxCell id="z6N8PKe_HhuRY13bzHWO-4" value="Reverse Proxy&lt;br&gt;[Traefik]" style="rounded=1;whiteSpace=wrap;html=1;fontStyle=1" parent="1" vertex="1">
          <mxGeometry x="217" y="130" width="160" height="40" as="geometry" />
        </mxCell>
        <mxCell id="z6N8PKe_HhuRY13bzHWO-10" value="Store Backup and&lt;br&gt;&amp;nbsp;Registry data" style="text;html=1;align=center;verticalAlign=middle;resizable=0;points=[];autosize=1;strokeColor=none;fillColor=none;" parent="1" vertex="1">
          <mxGeometry x="354" y="260" width="120" height="40" as="geometry" />
        </mxCell>
        <mxCell id="z6N8PKe_HhuRY13bzHWO-12" value="Store Docke and&amp;nbsp;&lt;br&gt;Apt Blob" style="text;html=1;align=center;verticalAlign=middle;resizable=0;points=[];autosize=1;strokeColor=none;fillColor=none;" parent="1" vertex="1">
          <mxGeometry x="87" y="260" width="120" height="40" as="geometry" />
        </mxCell>
        <mxCell id="z6N8PKe_HhuRY13bzHWO-18" value="" style="edgeStyle=orthogonalEdgeStyle;rounded=0;orthogonalLoop=1;jettySize=auto;html=1;exitX=1;exitY=0.5;exitDx=0;exitDy=0;" parent="1" source="z6N8PKe_HhuRY13bzHWO-61" target="z6N8PKe_HhuRY13bzHWO-4" edge="1">
          <mxGeometry relative="1" as="geometry">
            <mxPoint x="142" y="55.028571428571354" as="sourcePoint" />
          </mxGeometry>
        </mxCell>
        <mxCell id="z6N8PKe_HhuRY13bzHWO-25" value="" style="rounded=1;whiteSpace=wrap;html=1;fillColor=#ffe6cc;arcSize=29;dashed=1;strokeColor=#d79b00;" parent="1" vertex="1">
          <mxGeometry x="146" y="370" width="273" height="140" as="geometry" />
        </mxCell>
        <mxCell id="z6N8PKe_HhuRY13bzHWO-41" style="edgeStyle=orthogonalEdgeStyle;rounded=0;orthogonalLoop=1;jettySize=auto;html=1;fontFamily=Helvetica;fontSize=12;fontColor=default;entryX=1;entryY=0.5;entryDx=0;entryDy=0;" parent="1" source="z6N8PKe_HhuRY13bzHWO-26" target="z6N8PKe_HhuRY13bzHWO-4" edge="1">
          <mxGeometry relative="1" as="geometry">
            <mxPoint x="537" y="160" as="targetPoint" />
            <Array as="points">
              <mxPoint x="567" y="479" />
              <mxPoint x="567" y="150" />
            </Array>
          </mxGeometry>
        </mxCell>
        <mxCell id="z6N8PKe_HhuRY13bzHWO-26" value="Replication Objec Storage&lt;br&gt;[Minio]" style="rounded=1;whiteSpace=wrap;html=1;fontStyle=1" parent="1" vertex="1">
          <mxGeometry x="217" y="457.08" width="160" height="40" as="geometry" />
        </mxCell>
        <mxCell id="z6N8PKe_HhuRY13bzHWO-36" style="edgeStyle=orthogonalEdgeStyle;rounded=0;orthogonalLoop=1;jettySize=auto;html=1;entryX=0.5;entryY=0;entryDx=0;entryDy=0;fontFamily=Helvetica;fontSize=12;fontColor=default;" parent="1" source="z6N8PKe_HhuRY13bzHWO-33" target="z6N8PKe_HhuRY13bzHWO-26" edge="1">
          <mxGeometry relative="1" as="geometry" />
        </mxCell>
        <mxCell id="z6N8PKe_HhuRY13bzHWO-33" value="Reverse Proxy&lt;br&gt;[Traefik]" style="rounded=1;whiteSpace=wrap;html=1;fontStyle=1" parent="1" vertex="1">
          <mxGeometry x="217" y="394" width="160" height="40" as="geometry" />
        </mxCell>
        <mxCell id="z6N8PKe_HhuRY13bzHWO-42" value="Minio Replication Path" style="text;html=1;align=center;verticalAlign=middle;resizable=0;points=[];autosize=1;strokeColor=none;fillColor=none;" parent="1" vertex="1">
          <mxGeometry x="297" y="335" width="140" height="30" as="geometry" />
        </mxCell>
        <mxCell id="z6N8PKe_HhuRY13bzHWO-43" value="Minio Replication Path" style="text;html=1;align=center;verticalAlign=middle;resizable=0;points=[];autosize=1;strokeColor=none;fillColor=none;" parent="1" vertex="1">
          <mxGeometry x="419" y="446.5" width="140" height="30" as="geometry" />
        </mxCell>
        <mxCell id="z6N8PKe_HhuRY13bzHWO-45" value="Repo Server" style="text;html=1;align=center;verticalAlign=middle;resizable=0;points=[];autosize=1;strokeColor=none;fillColor=none;fontStyle=1" parent="1" vertex="1">
          <mxGeometry x="175" y="85" width="90" height="30" as="geometry" />
        </mxCell>
        <mxCell id="z6N8PKe_HhuRY13bzHWO-46" value="Backup Server" style="text;html=1;align=center;verticalAlign=middle;resizable=0;points=[];autosize=1;strokeColor=none;fillColor=none;fontStyle=1" parent="1" vertex="1">
          <mxGeometry x="165" y="347" width="110" height="30" as="geometry" />
        </mxCell>
        <mxCell id="z6N8PKe_HhuRY13bzHWO-52" value="" style="shape=image;verticalLabelPosition=bottom;labelBackgroundColor=default;verticalAlign=top;aspect=fixed;imageAspect=0;image=https://seeklogo.com/images/G/gitlab-logo-757620E430-seeklogo.com.png;" parent="1" vertex="1">
          <mxGeometry x="474" y="245" width="70.39" height="65" as="geometry" />
        </mxCell>
        <mxCell id="z6N8PKe_HhuRY13bzHWO-53" value="" style="shape=image;verticalLabelPosition=bottom;labelBackgroundColor=default;verticalAlign=top;aspect=fixed;imageAspect=0;image=https://assets-global.website-files.com/5f10ed4c0ebf7221fb5661a5/5f2af61146c55b6e172fa5b3_NexusRepo_Icon.png;" parent="1" vertex="1">
          <mxGeometry x="60" y="200" width="50" height="50" as="geometry" />
        </mxCell>
        <mxCell id="z6N8PKe_HhuRY13bzHWO-54" value="" style="shape=image;verticalLabelPosition=bottom;labelBackgroundColor=default;verticalAlign=top;aspect=fixed;imageAspect=0;image=https://upload.wikimedia.org/wikipedia/commons/thumb/1/1b/Traefik.logo.png/1200px-Traefik.logo.png;" parent="1" vertex="1">
          <mxGeometry x="159.87" y="117.5" width="47.13" height="65" as="geometry" />
        </mxCell>
        <mxCell id="z6N8PKe_HhuRY13bzHWO-58" value="" style="shape=image;verticalLabelPosition=bottom;labelBackgroundColor=default;verticalAlign=top;aspect=fixed;imageAspect=0;image=https://cdn.hackernoon.com/images/img-y3233jx.png;" parent="1" vertex="1">
          <mxGeometry x="174.01" y="458.99999999999994" width="18.85" height="38.08" as="geometry" />
        </mxCell>
        <mxCell id="z6N8PKe_HhuRY13bzHWO-59" value="" style="shape=image;verticalLabelPosition=bottom;labelBackgroundColor=default;verticalAlign=top;aspect=fixed;imageAspect=0;image=https://cdn.hackernoon.com/images/img-y3233jx.png;" parent="1" vertex="1">
          <mxGeometry x="188.14999999999998" y="281.91999999999996" width="18.85" height="38.08" as="geometry" />
        </mxCell>
        <mxCell id="z6N8PKe_HhuRY13bzHWO-60" value="" style="shape=image;verticalLabelPosition=bottom;labelBackgroundColor=default;verticalAlign=top;aspect=fixed;imageAspect=0;image=https://upload.wikimedia.org/wikipedia/commons/thumb/1/1b/Traefik.logo.png/1200px-Traefik.logo.png;" parent="1" vertex="1">
          <mxGeometry x="159.87" y="381.5" width="47.13" height="65" as="geometry" />
        </mxCell>
        <mxCell id="z6N8PKe_HhuRY13bzHWO-61" value="" style="shape=image;verticalLabelPosition=bottom;labelBackgroundColor=default;verticalAlign=top;aspect=fixed;imageAspect=0;image=https://cdn-icons-png.flaticon.com/512/2019/2019400.png;" parent="1" vertex="1">
          <mxGeometry x="110" y="30" width="70" height="70" as="geometry" />
        </mxCell>
        <mxCell id="z6N8PKe_HhuRY13bzHWO-62" value="End Users" style="text;html=1;align=center;verticalAlign=middle;resizable=0;points=[];autosize=1;strokeColor=none;fillColor=none;fontStyle=1" parent="1" vertex="1">
          <mxGeometry x="188.14999999999998" y="40" width="80" height="30" as="geometry" />
        </mxCell>
        <mxCell id="WSyvmC7M4khC-FteX-V9-1" value="" style="rounded=1;whiteSpace=wrap;html=1;fillColor=#d5e8d4;strokeColor=#82b366;dashed=1;" vertex="1" parent="1">
          <mxGeometry x="580" y="110.5" width="216" height="211.5" as="geometry" />
        </mxCell>
        <mxCell id="WSyvmC7M4khC-FteX-V9-13" style="edgeStyle=orthogonalEdgeStyle;rounded=0;orthogonalLoop=1;jettySize=auto;html=1;exitX=0;exitY=0.5;exitDx=0;exitDy=0;entryX=1;entryY=0.5;entryDx=0;entryDy=0;" edge="1" parent="1" source="WSyvmC7M4khC-FteX-V9-2" target="z6N8PKe_HhuRY13bzHWO-3">
          <mxGeometry relative="1" as="geometry" />
        </mxCell>
        <mxCell id="WSyvmC7M4khC-FteX-V9-2" value="Gitlab Runner&amp;nbsp;" style="rounded=1;whiteSpace=wrap;html=1;fontStyle=1;align=center;" vertex="1" parent="1">
          <mxGeometry x="599" y="218.29000000000002" width="120" height="40" as="geometry" />
        </mxCell>
        <mxCell id="WSyvmC7M4khC-FteX-V9-3" value="" style="shape=image;verticalLabelPosition=bottom;labelBackgroundColor=default;verticalAlign=top;aspect=fixed;imageAspect=0;image=https://gitlab.com/uploads/-/system/project/avatar/250833/runner_logo.png;" vertex="1" parent="1">
          <mxGeometry x="734" y="214.08000000000004" width="44.21" height="44.21" as="geometry" />
        </mxCell>
        <mxCell id="WSyvmC7M4khC-FteX-V9-4" value="" style="shape=image;verticalLabelPosition=bottom;labelBackgroundColor=default;verticalAlign=top;aspect=fixed;imageAspect=0;image=https://upload.wikimedia.org/wikipedia/commons/e/ea/Docker_%28container_engine%29_logo_%28cropped%29.png;" vertex="1" parent="1">
          <mxGeometry x="724.63" y="269.5" width="62.94" height="36" as="geometry" />
        </mxCell>
        <mxCell id="WSyvmC7M4khC-FteX-V9-5" value="Docker Enginee" style="rounded=1;whiteSpace=wrap;html=1;fontStyle=1;align=center;" vertex="1" parent="1">
          <mxGeometry x="599" y="267.5" width="120" height="40" as="geometry" />
        </mxCell>
        <mxCell id="WSyvmC7M4khC-FteX-V9-6" value="Runner Jobs Container" style="rounded=1;whiteSpace=wrap;html=1;fontStyle=1;align=center;" vertex="1" parent="1">
          <mxGeometry x="599" y="119.5" width="152" height="40" as="geometry" />
        </mxCell>
        <mxCell id="WSyvmC7M4khC-FteX-V9-7" value="Runner Jobs Container" style="rounded=1;whiteSpace=wrap;html=1;fontStyle=1;align=center;" vertex="1" parent="1">
          <mxGeometry x="609" y="129.5" width="152" height="40" as="geometry" />
        </mxCell>
        <mxCell id="WSyvmC7M4khC-FteX-V9-8" value="Runner Jobs Container" style="rounded=1;whiteSpace=wrap;html=1;fontStyle=1;align=center;" vertex="1" parent="1">
          <mxGeometry x="619" y="139.5" width="152" height="40" as="geometry" />
        </mxCell>
        <mxCell id="WSyvmC7M4khC-FteX-V9-9" value="Runner Jobs Container" style="rounded=1;whiteSpace=wrap;html=1;fontStyle=1;align=center;" vertex="1" parent="1">
          <mxGeometry x="629" y="149.5" width="152" height="40" as="geometry" />
        </mxCell>
        <mxCell id="WSyvmC7M4khC-FteX-V9-10" value="Runner Jobs Container" style="rounded=1;whiteSpace=wrap;html=1;fontStyle=1;align=center;" vertex="1" parent="1">
          <mxGeometry x="639" y="159.5" width="152" height="40" as="geometry" />
        </mxCell>
        <mxCell id="WSyvmC7M4khC-FteX-V9-11" value="Runner Server" style="text;html=1;align=center;verticalAlign=middle;resizable=0;points=[];autosize=1;strokeColor=none;fillColor=none;fontStyle=1" vertex="1" parent="1">
          <mxGeometry x="633" y="85" width="101" height="26" as="geometry" />
        </mxCell>
        <mxCell id="WSyvmC7M4khC-FteX-V9-12" value="Connect to Gitlab server" style="text;html=1;align=center;verticalAlign=middle;resizable=0;points=[];autosize=1;strokeColor=none;fillColor=none;fontStyle=1" vertex="1" parent="1">
          <mxGeometry x="472" y="199.5" width="157" height="26" as="geometry" />
        </mxCell>
      </root>
    </mxGraphModel>
  </diagram>
</mxfile>
